<svg width="146" height="179" viewBox="0 0 146 179" fill="none" xmlns="http://www.w3.org/2000/svg">
<path d="M1.12792 8.77955C0.453888 9.26118 0.29792 10.198 0.779549 10.8721L8.62823 21.8561C9.10987 22.5301 10.0467 22.6861 10.7207 22.2044C11.3948 21.7228 11.5508 20.7859 11.0691 20.1119L4.09251 10.3484L13.8561 3.37175C14.5301 2.89012 14.6861 1.95326 14.2044 1.27924C13.7228 0.605198 12.786 0.449238 12.1119 0.930869L1.12792 8.77955ZM145.487 177.806C144.712 171.859 141.064 159.281 134.677 143.602C128.274 127.883 119.072 108.932 107.115 90.2237C83.2455 52.8739 48.189 16.169 2.24633 8.52036L1.75366 11.4796C46.4151 18.915 80.8586 54.7101 104.588 91.8393C116.431 110.37 125.553 129.154 131.899 144.734C138.262 160.354 141.788 172.641 142.513 178.194L145.487 177.806Z" fill="black"/>
</svg>
